<svg width="58" height="24" viewBox="0 0 58 24" fill="none" xmlns="http://www.w3.org/2000/svg">
<path d="M7 10V22" stroke="#060619" stroke-opacity="0.6" stroke-width="2" stroke-linecap="round" stroke-linejoin="round"/>
<path d="M15 5.88L14 10H19.83C20.1405 10 20.4467 10.0723 20.7244 10.2111C21.0021 10.35 21.2437 10.5516 21.43 10.8C21.6163 11.0484 21.7422 11.3367 21.7977 11.6422C21.8533 11.9477 21.8369 12.2619 21.75 12.56L19.42 20.56C19.2988 20.9754 19.0462 21.3404 18.7 21.6C18.3538 21.8596 17.9327 22 17.5 22H4C3.46957 22 2.96086 21.7893 2.58579 21.4142C2.21071 21.0391 2 20.5304 2 20V12C2 11.4696 2.21071 10.9609 2.58579 10.5858C2.96086 10.2107 3.46957 10 4 10H6.76C7.13208 9.9998 7.49674 9.89581 7.81296 9.69972C8.12917 9.50363 8.38442 9.22321 8.55 8.89L12 2C12.4716 2.00584 12.9357 2.11817 13.3578 2.3286C13.7799 2.53902 14.1489 2.84211 14.4374 3.2152C14.7259 3.5883 14.9263 4.02176 15.0237 4.4832C15.1212 4.94464 15.113 5.42213 15 5.88V5.88Z" stroke="#060619" stroke-opacity="0.6" stroke-width="2" stroke-linecap="round" stroke-linejoin="round"/>
<path d="M51 14V2" stroke="#060619" stroke-opacity="0.6" stroke-width="2" stroke-linecap="round" stroke-linejoin="round"/>
<path d="M43 18.12L44 14H38.17C37.8596 14 37.5533 13.9277 37.2756 13.7889C36.9979 13.65 36.7563 13.4484 36.57 13.2C36.3837 12.9516 36.2578 12.6633 36.2023 12.3578C36.1468 12.0523 36.1631 11.7381 36.25 11.44L38.58 3.44C38.7012 3.02457 38.9539 2.65964 39.3 2.4C39.6462 2.14036 40.0673 2 40.5 2H54C54.5305 2 55.0392 2.21071 55.4143 2.58579C55.7893 2.96086 56 3.46957 56 4V12C56 12.5304 55.7893 13.0391 55.4143 13.4142C55.0392 13.7893 54.5305 14 54 14H51.24C50.868 14.0002 50.5033 14.1042 50.1871 14.3003C49.8709 14.4964 49.6156 14.7768 49.45 15.11L46 22C45.5285 21.9942 45.0643 21.8818 44.6422 21.6714C44.2202 21.461 43.8511 21.1579 43.5626 20.7848C43.2742 20.4117 43.0737 19.9782 42.9763 19.5168C42.8789 19.0554 42.887 18.5779 43 18.12V18.12Z" stroke="#060619" stroke-opacity="0.6" stroke-width="2" stroke-linecap="round" stroke-linejoin="round"/>
</svg>
